<?xml version="1.0" standalone="no"?>
<!DOCTYPE svg PUBLIC "-//W3C//DTD SVG 20010904//EN"
 "http://www.w3.org/TR/2001/REC-SVG-20010904/DTD/svg10.dtd">
<svg version="1.0" xmlns="http://www.w3.org/2000/svg"
 width="250.000000pt" height="250.000000pt" viewBox="0 0 250.000000 250.000000"
 preserveAspectRatio="xMidYMid meet">
<metadata>
Created by potrace 1.11, written by Peter Selinger 2001-2013
</metadata>
<g transform="translate(0.000000,250.000000) scale(0.100000,-0.100000)"
fill="#000000" stroke="none">
<path d="M1450 2286 c0 -8 18 -34 40 -58 76 -84 75 -79 44 -140 -46 -91 -99
-161 -231 -308 -13 -14 -23 -28 -23 -33 0 -4 -3 -6 -7 -4 -5 3 -9 -13 -11 -34
-4 -56 16 -51 91 24 87 85 297 404 297 450 0 20 -72 84 -116 102 -46 19 -84
19 -84 1z"/>
<path d="M1090 2175 c-9 -10 -10 -29 -5 -62 5 -27 7 -58 6 -71 -1 -13 3 -30
11 -39 10 -13 10 -15 0 -9 -10 6 -12 -3 -8 -38 3 -31 0 -44 -7 -39 -6 4 -7 1
-3 -6 5 -7 7 -75 7 -152 -2 -118 0 -140 14 -145 8 -4 22 -1 30 6 11 9 15 9 15
1 0 -9 3 -9 13 0 21 20 26 102 13 254 -12 163 -22 226 -40 269 -17 42 -30 50
-46 31z"/>
<path d="M1645 1780 c-22 -10 -75 -34 -117 -54 -42 -20 -82 -36 -88 -36 -5 0
-10 -4 -10 -10 0 -5 -5 -10 -11 -10 -7 0 -39 -17 -73 -38 -63 -40 -125 -69
-138 -64 -5 1 -8 -2 -8 -8 0 -5 -4 -10 -10 -10 -16 0 -119 -51 -198 -97 -41
-24 -78 -40 -83 -37 -5 3 -9 2 -8 -3 4 -22 -2 -32 -16 -27 -9 4 -15 0 -15 -10
0 -16 -33 -39 -43 -30 -3 3 -4 -1 -3 -10 1 -9 11 -22 21 -30 17 -12 21 -12 33
5 11 16 17 18 28 8 12 -10 15 -10 12 2 -2 9 4 13 16 11 10 -2 15 1 11 7 -4 7
0 8 11 4 13 -5 15 -3 9 7 -5 9 -4 11 4 6 6 -4 18 -2 26 4 8 7 15 9 15 5 0 -4
8 -1 17 6 9 8 14 9 10 3 -3 -6 0 -11 7 -11 8 0 12 5 10 11 -2 6 7 16 21 23 14
6 23 8 21 4 -3 -4 4 -8 15 -8 10 -1 19 3 19 8 0 6 -4 7 -10 4 -5 -3 -10 -2
-10 3 0 15 30 23 31 9 0 -7 4 -3 8 7 4 11 17 21 30 23 15 2 20 -1 15 -9 -4 -7
-3 -8 5 -4 6 4 9 12 6 17 -4 5 1 12 9 15 9 3 13 11 9 18 -4 6 2 4 12 -4 11 -9
16 -10 11 -2 -4 6 -2 12 3 12 6 0 11 7 11 16 0 8 5 12 10 9 6 -3 10 -1 10 6 0
7 3 10 6 6 3 -3 17 4 31 16 13 12 29 23 34 23 5 1 11 3 14 4 3 1 8 3 13 4 4 1
14 6 22 11 8 5 21 10 29 12 8 1 17 7 21 14 6 8 9 6 13 -7 4 -16 5 -16 6 -2 1
12 6 15 18 11 11 -4 14 -3 9 5 -5 8 -1 10 10 5 18 -7 -10 -35 -174 -182 -40
-35 -72 -69 -72 -75 0 -11 -101 -86 -116 -86 -4 0 -15 -7 -25 -16 -9 -8 -26
-16 -37 -17 -16 -1 -19 -4 -10 -15 6 -7 7 -12 2 -11 -16 2 -54 -13 -54 -23 0
-5 -7 -16 -16 -25 -8 -9 -14 -25 -12 -37 4 -31 58 -26 133 11 62 31 89 34 109
12 8 -9 7 -10 -4 -4 -12 7 -13 6 -3 -7 7 -8 11 -17 9 -19 -4 -4 -20 -113 -31
-214 -3 -27 -8 -61 -10 -75 -2 -14 -7 -59 -10 -100 -3 -41 -8 -86 -10 -100 -2
-14 -7 -53 -10 -87 -6 -61 -6 -62 19 -69 31 -7 69 11 244 120 67 42 129 76
138 76 20 0 101 -58 109 -77 4 -12 8 -13 20 -3 12 10 15 9 15 -4 0 -10 5 -14
10 -11 6 4 8 11 5 16 -3 5 2 6 11 2 17 -6 17 11 -2 113 -10 55 -7 269 5 359 7
50 22 130 33 178 17 74 18 93 8 118 -8 19 -18 28 -26 25 -8 -3 -14 -2 -14 3 0
4 -7 8 -15 8 -9 0 -14 -6 -11 -14 4 -9 2 -11 -7 -6 -21 13 -37 12 -37 -4 0
-13 -2 -13 -17 -2 -15 12 -16 12 -10 -5 6 -16 5 -17 -8 -6 -12 10 -15 10 -15
-1 0 -12 -2 -12 -9 -1 -7 11 -9 11 -14 -2 -4 -10 -13 -13 -23 -9 -13 5 -15 3
-9 -7 6 -10 4 -12 -8 -7 -10 3 -17 2 -17 -3 0 -6 -3 -9 -7 -8 -5 1 -43 -15
-86 -36 -43 -20 -82 -34 -87 -31 -6 3 -10 1 -10 -6 0 -9 -3 -9 -14 0 -10 8
-12 21 -6 47 11 49 27 70 114 149 73 67 246 272 259 307 10 29 -15 37 -58 18z
m80 -459 c-2 -14 -8 -37 -13 -51 -9 -23 -15 -75 -27 -245 -13 -167 -17 -181
-58 -189 -21 -4 -51 -26 -87 -64 -34 -35 -87 -75 -140 -104 -47 -26 -89 -51
-95 -55 -5 -4 -18 -9 -29 -11 -16 -3 -17 2 -11 55 3 32 12 63 18 70 7 6 53 32
102 57 124 62 230 136 230 161 0 34 -30 28 -147 -31 -153 -77 -185 -87 -193
-66 -9 25 25 62 116 124 149 102 234 187 212 209 -14 14 -49 -4 -150 -80 -45
-33 -84 -57 -87 -54 -3 3 -12 1 -20 -6 -11 -9 -15 -7 -18 14 -3 14 1 36 8 49
12 24 74 91 74 80 0 -3 9 4 20 14 23 21 111 68 123 64 4 -1 7 3 7 9 0 6 5 9
12 7 7 -3 23 6 36 19 16 16 31 22 48 19 16 -3 22 -1 18 6 -5 7 2 9 20 6 19 -4
24 -2 16 7 -7 8 -5 12 4 12 9 0 13 -9 11 -26z m-865 9 c-12 -8 -12 -10 -1 -10
8 0 12 -2 9 -5 -3 -3 -13 -2 -22 1 -14 5 -15 9 -4 15 7 5 18 9 23 9 6 0 3 -5
-5 -10z"/>
<path d="M507 1455 c-8 -8 -18 -11 -21 -7 -4 3 -4 -1 -1 -9 3 -9 25 -22 48
-29 23 -6 67 -28 99 -47 61 -38 91 -40 96 -7 4 25 -39 79 -79 99 -37 19 -123
20 -142 0z"/>
<path d="M703 1119 c-18 -5 -35 -14 -38 -19 -3 -5 -12 -7 -20 -3 -8 3 -15 -1
-15 -8 0 -7 -3 -9 -7 -6 -3 4 -12 2 -19 -4 -8 -6 -20 -9 -28 -6 -8 3 -16 1
-19 -6 -2 -7 -12 -12 -23 -13 -10 0 -26 -3 -34 -7 -13 -4 -62 -18 -80 -21 -14
-3 -30 -19 -29 -29 0 -8 2 -8 6 1 4 10 8 9 19 -5 13 -17 13 -17 14 2 l1 20 9
-20 c5 -11 9 -15 9 -10 1 6 26 10 56 9 30 0 55 3 55 7 0 8 20 7 36 -4 7 -4 17
0 24 9 7 8 19 13 26 10 7 -3 15 0 18 7 2 7 5 -1 5 -16 1 -17 -17 -58 -44 -103
-25 -40 -45 -81 -45 -89 0 -17 39 -116 49 -125 15 -13 7 -31 -30 -64 -22 -20
-44 -34 -49 -31 -6 4 -10 2 -10 -4 0 -6 -7 -7 -17 -4 -10 4 -14 2 -9 -5 3 -6
1 -14 -5 -18 -7 -4 -9 -3 -6 3 4 6 0 14 -9 17 -8 3 -12 2 -9 -3 10 -16 -29
-18 -48 -2 -16 13 -17 13 -12 0 4 -12 0 -15 -17 -13 -13 1 -27 3 -31 3 -5 1
-6 5 -3 9 3 5 -1 9 -9 9 -8 0 -12 -4 -9 -9 3 -4 0 -8 -5 -8 -6 0 -11 6 -11 13
0 9 -3 8 -9 -2 -6 -9 -10 -10 -16 -2 -4 8 -11 9 -19 2 -7 -6 -17 -6 -26 -1 -9
5 -19 5 -27 -2 -9 -7 -13 -7 -13 2 0 9 -3 10 -13 1 -8 -6 -17 -7 -22 -3 -4 4
-6 -5 -3 -20 4 -21 2 -25 -11 -21 -9 3 1 -6 22 -21 21 -14 42 -26 48 -26 6 0
7 -5 3 -11 -4 -7 2 -7 17 1 20 10 22 10 12 -1 -7 -7 -13 -18 -13 -23 0 -6 5
-4 10 4 9 13 11 13 20 0 6 -10 10 -11 10 -2 0 6 5 12 11 12 6 0 9 -6 6 -13 -4
-10 3 -12 24 -9 18 3 29 0 29 -7 0 -7 5 -9 10 -6 6 4 17 1 25 -5 12 -10 15 -9
16 6 1 14 3 13 9 -6 5 -16 8 -19 9 -8 1 16 5 15 39 -4 29 -18 34 -19 23 -5
-12 15 -12 17 3 11 9 -3 16 -12 16 -19 0 -8 18 -11 60 -10 47 1 60 -1 60 -13
0 -10 4 -12 13 -5 13 10 19 10 54 -2 13 -4 20 -12 16 -19 -4 -6 1 -5 10 3 16
12 22 8 18 -12 -1 -5 3 -6 9 -2 6 3 8 11 5 16 -4 5 -1 9 4 9 6 0 11 -8 11 -17
0 -15 2 -16 10 -3 8 13 10 12 10 -3 0 -10 5 -15 10 -12 6 4 8 10 5 15 -6 9 14
8 30 -1 6 -4 18 -5 28 -4 9 2 15 0 12 -4 -2 -5 7 -13 21 -20 34 -15 42 -14 18
4 -18 14 -18 14 4 8 12 -3 22 -9 22 -14 0 -5 5 -9 11 -9 5 0 7 5 4 10 -3 6 -1
10 4 10 6 0 11 -8 11 -17 0 -14 2 -15 9 -5 7 11 9 10 14 -3 5 -13 11 -14 27
-5 15 8 20 8 20 -2 0 -9 3 -9 10 2 9 14 14 7 11 -15 -1 -5 6 -1 14 9 11 15 15
16 15 5 0 -10 11 -14 40 -13 22 0 40 -2 40 -6 0 -6 27 -9 93 -11 9 0 15 -5 11
-11 -4 -6 1 -6 14 1 13 7 23 7 27 2 3 -6 13 -9 23 -9 9 0 33 -3 52 -6 221 -44
412 -43 640 3 211 43 270 63 238 82 -6 4 -167 8 -357 9 -191 0 -357 3 -371 5
-14 1 -63 10 -110 19 -119 22 -134 24 -330 52 -19 2 -64 7 -99 10 -36 2 -71
10 -78 16 -9 7 -13 7 -13 -1 0 -7 -6 -8 -17 -2 -10 5 -67 23 -128 41 -60 17
-117 38 -125 46 -12 12 -11 16 8 34 24 23 62 91 62 112 0 7 -16 37 -36 67 -20
30 -36 64 -36 76 0 12 25 59 56 105 61 90 82 144 72 184 -7 28 -25 32 -83 15z
m-83 -103 c0 -3 -4 -8 -10 -11 -5 -3 -10 -1 -10 4 0 6 5 11 10 11 6 0 10 -2
10 -4z"/>
<path d="M676 369 c3 -5 9 -7 14 -4 4 3 11 0 13 -5 3 -6 4 -5 3 1 -1 7 -10 13
-19 15 -9 1 -15 -2 -11 -7z"/>
</g>
</svg>
