<?xml version="1.0" standalone="no"?>
<!DOCTYPE svg PUBLIC "-//W3C//DTD SVG 20010904//EN"
 "http://www.w3.org/TR/2001/REC-SVG-20010904/DTD/svg10.dtd">
<svg version="1.0" xmlns="http://www.w3.org/2000/svg"
 width="260.000000pt" height="260.000000pt" viewBox="0 0 260.000000 260.000000"
 preserveAspectRatio="xMidYMid meet">
<metadata>
Created by potrace 1.11, written by Peter Selinger 2001-2013
</metadata>
<g transform="translate(0.000000,260.000000) scale(0.100000,-0.100000)"
fill="#000000" stroke="none">
<path d="M1485 2372 c-15 -15 0 -35 51 -67 51 -33 55 -38 49 -63 -4 -15 -13
-31 -21 -35 -8 -4 -25 -29 -38 -55 -14 -26 -32 -56 -40 -67 -42 -53 -123 -160
-137 -181 -9 -14 -28 -39 -43 -57 -37 -45 -78 -108 -73 -114 3 -2 21 10 40 26
19 17 40 31 46 31 6 0 11 4 11 9 0 5 6 16 13 23 22 24 67 87 67 94 0 4 12 20
26 35 26 27 31 34 68 100 10 18 29 42 42 52 13 10 24 27 24 38 0 10 4 19 9 19
5 0 13 10 16 23 4 12 18 36 31 54 13 17 24 38 24 47 0 15 -50 56 -69 56 -6 0
-11 4 -11 9 0 10 -76 31 -85 23z"/>
<path d="M1080 2264 c0 -3 12 -26 26 -51 26 -43 27 -48 20 -156 -3 -62 -11
-130 -18 -152 -7 -22 -12 -78 -11 -124 1 -90 8 -103 53 -99 20 2 25 8 23 28
-3 32 -3 96 0 245 2 139 -18 270 -45 297 -17 17 -48 25 -48 12z"/>
<path d="M2225 2140 c4 -6 11 -8 16 -5 14 9 11 15 -7 15 -8 0 -12 -5 -9 -10z"/>
<path d="M1696 1902 c-10 -2 -33 -12 -50 -23 -17 -10 -47 -28 -66 -39 -19 -11
-53 -36 -75 -56 l-40 -35 38 3 c31 3 36 1 31 -11 -11 -26 -17 -61 -11 -61 4 0
27 20 53 45 25 25 48 45 51 45 3 0 17 13 31 28 15 15 37 35 49 43 28 20 20 67
-11 61z"/>
<path d="M1390 1725 c-7 -8 -16 -12 -21 -9 -5 3 -9 -2 -9 -11 0 -28 59 -1 60
28 0 12 -17 8 -30 -8z"/>
<path d="M1280 1664 c0 -9 5 -14 12 -12 18 6 21 28 4 28 -9 0 -16 -7 -16 -16z"/>
<path d="M1403 1585 c-87 -81 -93 -85 -137 -85 -48 0 -70 -16 -42 -32 25 -14
19 -35 -21 -70 -21 -18 -53 -48 -71 -65 -19 -18 -56 -47 -83 -65 -27 -17 -48
-36 -46 -42 7 -20 64 -14 88 8 59 54 152 117 165 112 16 -6 12 -91 -7 -157
-26 -86 13 -116 44 -34 10 28 27 59 38 71 10 11 19 24 19 30 0 11 45 54 56 54
13 0 139 90 139 98 0 4 5 6 12 4 17 -4 111 43 138 68 20 19 21 19 32 1 14 -22
10 -112 -6 -154 -13 -34 -15 -227 -2 -227 9 0 21 68 27 149 2 24 6 51 10 60 3
9 8 31 11 50 2 19 13 48 25 64 l21 30 -36 33 c-36 33 -97 48 -97 24 0 -5 -11
-12 -25 -16 -14 -3 -25 -10 -25 -15 0 -5 -13 -9 -29 -9 -16 0 -36 -6 -43 -13
-7 -7 -39 -27 -71 -45 -31 -18 -75 -50 -97 -72 -52 -52 -66 -51 -73 3 -8 58 0
86 36 124 18 19 27 38 24 47 -4 9 -3 16 2 16 20 0 101 72 101 90 0 11 4 20 9
20 5 0 11 7 15 15 11 29 -11 14 -101 -70z"/>
<path d="M1176 1615 c-11 -8 -17 -18 -13 -21 10 -11 37 4 37 21 0 18 0 18 -24
0z"/>
<path d="M1042 1550 c-12 -12 -22 -25 -22 -30 0 -12 52 7 62 23 21 33 -7 37
-40 7z"/>
<path d="M516 1552 c-9 -14 24 -52 44 -52 11 0 34 -13 53 -30 42 -37 81 -52
113 -44 28 7 29 11 9 51 -23 46 -41 58 -54 36 -10 -17 -11 -17 -17 3 -4 15
-19 24 -56 32 -59 14 -85 15 -92 4z"/>
<path d="M980 1500 c-8 -5 -12 -11 -10 -14 3 -2 14 2 24 10 22 15 10 19 -14 4z"/>
<path d="M915 1490 c-3 -5 1 -10 9 -10 8 0 18 5 21 10 3 6 -1 10 -9 10 -8 0
-18 -4 -21 -10z"/>
<path d="M830 1450 c0 -5 7 -10 16 -10 8 0 12 5 9 10 -3 6 -10 10 -16 10 -5 0
-9 -4 -9 -10z"/>
<path d="M1527 1261 c-83 -54 -117 -90 -117 -123 0 -15 4 -28 9 -28 9 0 82 48
91 59 3 4 31 22 63 41 60 36 67 53 32 75 -17 11 -28 8 -78 -24z"/>
<path d="M742 1198 c-16 -16 -15 -30 2 -53 13 -18 14 -18 25 4 12 21 7 61 -8
61 -4 0 -12 -5 -19 -12z"/>
<path d="M732 1098 c6 -18 28 -21 28 -4 0 9 -7 16 -16 16 -9 0 -14 -5 -12 -12z"/>
<path d="M682 1061 c-27 -37 -27 -41 -2 -41 11 0 20 4 20 9 0 5 9 11 20 14 23
6 27 27 6 27 -8 0 -16 5 -18 11 -2 5 -13 -3 -26 -20z"/>
<path d="M1230 1055 c-5 -14 -11 -52 -12 -83 -3 -51 -1 -57 17 -57 14 0 21 9
26 34 4 18 15 45 26 60 29 41 24 65 -15 69 -27 3 -34 -1 -42 -23z"/>
<path d="M1524 1037 c-27 -18 -62 -38 -78 -45 -17 -7 -46 -26 -67 -43 -20 -16
-41 -29 -46 -29 -6 0 -18 -9 -27 -19 -14 -16 -23 -18 -43 -10 -13 5 -26 9 -28
9 -9 0 -34 -68 -38 -105 -2 -22 -9 -60 -15 -85 -29 -120 -30 -131 -15 -146 8
-7 25 -14 39 -14 19 0 28 9 40 40 9 21 29 48 46 58 l30 19 -38 -1 -39 -1 2 40
c1 22 2 61 3 87 1 51 8 59 49 64 14 1 51 14 81 28 30 14 67 27 82 30 15 3 43
22 64 41 20 19 47 35 59 35 30 0 60 33 43 47 -41 33 -54 33 -104 0z m-64 -76
c0 -18 -18 -21 -30 -6 -10 13 -9 15 9 15 11 0 21 -4 21 -9z"/>
<path d="M1702 1010 c0 -14 2 -19 5 -12 2 6 2 18 0 25 -3 6 -5 1 -5 -13z"/>
<path d="M602 944 c-24 -36 -22 -74 2 -74 8 0 20 -10 29 -22 8 -13 18 -20 22
-16 4 4 0 17 -9 30 -19 26 -21 59 -5 75 12 12 6 43 -8 43 -4 0 -18 -16 -31
-36z"/>
<path d="M1688 928 c-3 -8 -27 -13 -65 -14 -72 -2 -81 -6 -99 -50 -8 -18 -27
-40 -43 -49 -16 -8 -39 -30 -50 -49 -12 -19 -31 -36 -43 -38 -12 -2 -23 -9
-26 -15 -5 -18 23 -16 38 2 7 8 30 20 51 25 22 6 39 17 39 24 0 18 90 13 101
-5 4 -8 26 -38 49 -67 49 -61 78 -67 109 -23 25 35 27 57 6 69 -10 5 -17 28
-19 68 -6 88 -17 134 -31 134 -7 0 -15 -6 -17 -12z m-18 -93 c0 -14 -4 -25
-10 -25 -5 0 -10 11 -10 25 0 14 5 25 10 25 6 0 10 -11 10 -25z"/>
<path d="M662 795 c-1 -13 2 -26 7 -29 12 -8 -54 -75 -110 -112 -25 -17 -64
-34 -87 -37 -45 -8 -92 -26 -92 -37 0 -9 121 -31 131 -24 5 3 9 12 9 20 0 8 7
14 15 14 8 0 15 -7 15 -15 0 -8 5 -15 10 -15 6 0 10 4 10 10 0 5 13 7 32 3 28
-5 31 -4 24 13 -9 23 -9 21 -7 58 1 23 5 27 21 23 28 -7 67 27 79 69 12 44 7
58 -25 73 -32 14 -29 15 -32 -14z"/>
<path d="M278 618 c5 -5 16 -8 23 -6 8 3 3 7 -10 11 -17 4 -21 3 -13 -5z"/>
<path d="M657 561 c-17 -35 -14 -41 26 -41 24 0 28 3 24 20 -3 11 -1 20 4 20
5 0 9 -4 9 -10 0 -5 11 -10 25 -10 16 0 25 6 25 15 0 11 -11 15 -41 15 -24 0
-38 4 -34 10 3 6 -1 10 -9 10 -8 0 -21 -13 -29 -29z"/>
<path d="M803 525 c5 -11 1 -12 -18 -5 -16 6 -25 6 -25 0 0 -10 63 -30 98 -30
22 0 22 1 6 25 -18 28 -71 37 -61 10z"/>
<path d="M1010 504 c0 -7 9 -14 21 -17 12 -3 18 -10 14 -17 -4 -6 -13 -9 -21
-6 -8 3 -14 0 -14 -7 0 -12 144 -46 284 -67 38 -6 85 -18 105 -26 20 -9 59
-20 86 -25 28 -6 70 -14 95 -20 25 -6 90 -14 145 -19 89 -8 101 -7 113 8 11
15 14 15 22 2 7 -12 15 -12 42 -3 56 20 186 43 203 37 21 -8 184 44 211 68 11
10 30 18 42 18 11 0 24 5 28 11 4 8 -3 9 -22 5 -173 -34 -839 -40 -901 -8 -22
12 -159 41 -193 42 -14 0 -43 2 -65 5 -22 3 -58 7 -79 9 -22 3 -42 8 -45 13
-9 13 -71 10 -71 -3z m224 -65 c-7 -11 -34 -12 -34 -1 0 14 11 21 26 15 8 -3
11 -9 8 -14z m66 -19 c0 -5 -2 -10 -4 -10 -3 0 -8 5 -11 10 -3 6 -1 10 4 10 6
0 11 -4 11 -10z m121 -2 c22 -6 39 -15 39 -20 0 -11 -8 -10 -52 5 -70 25 -59
37 13 15z m749 -19 c0 -5 -7 -9 -15 -9 -15 0 -20 12 -9 23 8 8 24 -1 24 -14z"/>
<path d="M930 486 c0 -15 27 -29 40 -21 5 3 7 12 3 20 -7 19 -43 20 -43 1z"/>
</g>
</svg>
