<?xml version="1.0" standalone="no"?>
<!DOCTYPE svg PUBLIC "-//W3C//DTD SVG 20010904//EN"
 "http://www.w3.org/TR/2001/REC-SVG-20010904/DTD/svg10.dtd">
<svg version="1.0" xmlns="http://www.w3.org/2000/svg"
 width="260.000000pt" height="260.000000pt" viewBox="0 0 260.000000 260.000000"
 preserveAspectRatio="xMidYMid meet">
<metadata>
Created by potrace 1.11, written by Peter Selinger 2001-2013
</metadata>
<g transform="translate(0.000000,260.000000) scale(0.100000,-0.100000)"
fill="#000000" stroke="none">
<path d="M2157 2434 c-8 -8 1 -24 14 -24 5 0 9 7 9 15 0 15 -12 20 -23 9z"/>
<path d="M1430 2393 c0 -15 52 -72 72 -79 43 -13 79 -47 72 -67 -13 -40 -163
-252 -329 -463 -26 -33 -33 -64 -14 -64 6 0 26 13 45 29 18 16 39 33 46 38 16
9 98 108 98 117 0 6 107 155 133 186 38 45 107 172 107 198 0 24 -105 87 -168
101 -62 13 -62 13 -62 4z"/>
<path d="M1080 2260 c0 -11 9 -37 20 -57 25 -47 26 -155 3 -263 -9 -41 -16
-113 -16 -159 1 -70 4 -87 19 -98 21 -15 60 -17 69 -3 3 5 6 103 7 217 0 238
-13 334 -54 365 -30 23 -48 23 -48 -2z"/>
<path d="M2211 2153 c-29 -20 -26 -33 9 -33 36 0 61 35 30 43 -10 3 -28 -2
-39 -10z"/>
<path d="M1695 1912 c-11 -2 -24 -8 -29 -13 -6 -5 -17 -9 -25 -9 -8 0 -24 -9
-35 -19 -12 -11 -62 -40 -112 -65 -50 -25 -97 -52 -104 -61 -7 -8 -18 -15 -24
-15 -17 0 -93 -38 -101 -50 -3 -5 -12 -10 -20 -10 -7 0 -44 -17 -82 -39 -157
-88 -202 -111 -222 -111 -12 0 -33 -11 -46 -24 -15 -15 -31 -22 -44 -19 -11 3
-33 -3 -50 -13 -25 -15 -32 -15 -45 -5 -9 8 -16 19 -16 25 0 28 -53 61 -118
74 -103 20 -116 19 -120 -1 -5 -23 35 -67 60 -67 11 0 29 -11 42 -25 35 -37
83 -54 146 -49 75 5 89 8 134 27 21 10 46 17 55 17 9 0 60 22 111 50 52 27
110 56 128 64 17 8 32 19 32 25 0 5 13 12 30 16 16 4 45 17 65 31 20 13 41 24
47 24 6 0 35 14 65 31 52 30 83 33 83 7 0 -7 -43 -55 -95 -107 -94 -92 -96
-93 -134 -87 -30 5 -44 2 -62 -14 l-24 -20 25 -20 25 -20 -65 -60 c-36 -33
-89 -77 -118 -96 -62 -43 -68 -50 -52 -69 20 -24 66 -18 102 13 60 52 146 111
152 105 8 -8 -5 -126 -15 -137 -5 -6 -9 -34 -9 -62 0 -29 -5 -65 -11 -81 -6
-15 -13 -64 -15 -108 -4 -95 -20 -199 -34 -225 -5 -10 -10 -34 -10 -54 0 -19
-5 -47 -10 -62 -14 -35 4 -55 51 -57 29 -2 35 3 51 35 13 27 28 40 63 54 25 9
49 23 53 30 11 19 161 94 188 94 15 0 30 -10 41 -27 66 -106 111 -127 157 -72
29 35 33 66 11 83 -53 38 -19 601 40 666 35 39 -3 99 -76 121 -33 10 -40 9
-79 -20 -24 -17 -49 -31 -57 -31 -26 0 -157 -81 -207 -128 l-50 -46 -8 29
c-17 61 14 116 132 236 25 25 65 70 90 99 60 72 149 157 183 176 32 17 37 45
7 37 -15 -4 -19 -2 -14 10 7 18 -4 25 -31 19z m-1015 -392 c0 -5 -2 -10 -4
-10 -3 0 -8 5 -11 10 -3 6 -1 10 4 10 6 0 11 -4 11 -10z m1042 -106 c-2 -27
-7 -62 -12 -79 -8 -25 -14 -97 -33 -374 -2 -34 -3 -35 -52 -37 -77 -5 -91 -11
-109 -48 -9 -19 -44 -54 -82 -82 -36 -27 -78 -60 -92 -74 -15 -13 -31 -23 -36
-22 -4 1 -14 -2 -22 -9 -23 -19 -36 0 -28 45 4 22 7 54 8 71 1 25 6 30 39 37
20 4 47 14 60 21 12 8 49 22 82 32 41 12 70 29 91 51 18 19 40 34 50 34 22 1
64 33 64 49 0 16 -76 52 -94 45 -9 -3 -16 -10 -16 -14 0 -4 -13 -13 -30 -20
-16 -7 -30 -16 -30 -21 0 -5 -6 -9 -14 -9 -7 0 -30 -11 -49 -25 -51 -34 -126
-75 -137 -75 -15 0 -12 53 5 77 16 23 239 185 296 215 45 23 73 53 64 67 -3 6
-19 18 -34 26 -26 13 -31 12 -62 -10 -18 -14 -39 -25 -46 -25 -7 0 -45 -34
-85 -76 -79 -81 -105 -101 -119 -87 -14 14 12 85 45 124 79 93 65 84 241 177
55 29 104 58 110 63 19 19 30 1 27 -47z"/>
<path d="M740 1215 c-7 -8 -23 -15 -36 -15 -12 0 -26 -4 -29 -10 -3 -5 -14
-10 -24 -10 -10 0 -30 -9 -44 -20 -25 -20 -171 -55 -186 -45 -5 2 -17 -2 -27
-10 -31 -22 -6 -34 76 -36 70 -2 86 2 140 33 35 20 64 28 78 23 16 -6 -8 -51
-79 -153 -44 -63 -47 -79 -19 -110 11 -12 20 -25 20 -30 0 -5 9 -17 20 -27 11
-10 20 -26 20 -35 0 -23 -65 -97 -93 -106 -12 -3 -30 -13 -39 -22 -14 -12 -35
-14 -106 -9 -49 3 -106 12 -126 21 -38 16 -86 8 -86 -14 0 -11 82 -50 104 -50
7 0 26 -6 42 -14 16 -8 65 -19 109 -26 44 -6 109 -18 145 -27 36 -9 79 -18 95
-20 33 -3 101 -17 187 -39 32 -8 67 -14 78 -14 10 0 34 -6 52 -14 18 -8 89
-24 158 -36 202 -36 213 -38 255 -56 22 -10 50 -16 62 -15 12 1 34 -4 50 -12
15 -7 36 -12 46 -9 10 2 23 -1 30 -6 20 -16 263 -25 289 -11 35 19 85 30 179
39 83 7 209 42 238 64 8 6 28 15 45 21 34 11 47 42 21 51 -9 4 -26 2 -38 -4
-26 -13 -242 -32 -424 -37 -158 -5 -402 11 -464 31 -51 16 -143 35 -174 35
-11 1 -67 9 -125 19 -140 25 -190 30 -190 19 0 -5 -7 -9 -16 -9 -8 0 -12 5 -9
10 3 6 -2 11 -12 12 -33 2 -38 3 -50 11 -15 10 -146 37 -205 44 -27 3 -48 7
-48 9 0 2 22 26 49 53 58 58 73 104 46 145 -10 14 -22 26 -27 26 -14 0 -47 42
-48 61 0 32 40 105 84 151 36 39 45 57 51 97 11 78 -12 116 -45 76z m-95 -554
c3 -5 1 -12 -5 -16 -5 -3 -10 1 -10 9 0 18 6 21 15 7z m5 -101 c0 -5 -4 -10
-10 -10 -5 0 -10 5 -10 10 0 6 5 10 10 10 6 0 10 -4 10 -10z"/>
</g>
</svg>
